<svg width="38" height="47" viewBox="0 0 38 47" fill="none" xmlns="http://www.w3.org/2000/svg">
<path d="M19 23.5C16.3875 23.5 14.25 21.385 14.25 18.8C14.25 16.215 16.3875 14.1 19 14.1C21.6125 14.1 23.75 16.215 23.75 18.8C23.75 21.385 21.6125 23.5 19 23.5ZM33.25 19.27C33.25 10.7395 26.9562 4.7 19 4.7C11.0437 4.7 4.75 10.7395 4.75 19.27C4.75 24.769 9.38125 32.054 19 40.749C28.6187 32.054 33.25 24.769 33.25 19.27ZM19 0C28.975 0 38 7.567 38 19.27C38 27.072 31.6588 36.3075 19 47C6.34125 36.3075 0 27.072 0 19.27C0 7.567 9.025 0 19 0Z" fill="#05317C"/>
</svg>
