<svg width="47" height="47" viewBox="0 0 47 47" fill="none" xmlns="http://www.w3.org/2000/svg">
<path fill-rule="evenodd" clip-rule="evenodd" d="M43.1158 0.175978C44.9865 0.551115 46.4489 2.01339 46.824 3.88397C47.0919 5.22427 47.0535 6.60775 46.712 7.93117C46.3704 9.2546 45.7343 10.4838 44.8512 11.5271L37.8304 19.826L42.7917 38.024C42.9398 38.5666 42.9418 39.1388 42.7975 39.6824C42.6532 40.226 42.3677 40.7218 41.9699 41.1196L38.6471 44.4422C38.3649 44.7242 38.0212 44.9369 37.6428 45.0635C37.2645 45.1901 36.8619 45.2271 36.4668 45.1717C36.0717 45.1163 35.6949 44.97 35.366 44.7442C35.0371 44.5184 34.7651 44.2193 34.5714 43.8706L27.0631 30.3554L19.7693 36.4316L20.3052 39.1188C20.4089 39.634 20.3837 40.1668 20.2319 40.6699C20.0801 41.1729 19.8063 41.6307 19.4349 42.0025L15.1882 46.2464C14.8994 46.5349 14.5461 46.7506 14.1575 46.8758C13.7689 47.001 13.3561 47.0321 12.9532 46.9666C12.5502 46.901 12.1686 46.7407 11.8397 46.4988C11.5108 46.257 11.2441 45.9404 11.0615 45.5753L7.84587 39.152L1.4248 35.9365C1.05965 35.754 0.743091 35.4873 0.501192 35.1584C0.259293 34.8295 0.0989733 34.4479 0.0334326 34.045C-0.0321081 33.6421 -0.00099451 33.2293 0.124212 32.8407C0.249418 32.4522 0.465135 32.0989 0.7536 31.81L5.00029 27.5636C5.37185 27.1926 5.82923 26.9191 6.33186 26.7673C6.83448 26.6155 7.3668 26.5901 7.8816 26.6934L10.569 27.2293L16.6455 19.9383L3.1296 12.4279C2.78082 12.2342 2.48175 11.9623 2.25595 11.6334C2.03016 11.3045 1.88379 10.9277 1.82837 10.5326C1.77296 10.1375 1.81 9.73499 1.9366 9.35668C2.0632 8.97836 2.27589 8.6346 2.55793 8.35244L5.88076 5.0298C6.2785 4.63208 6.77434 4.3466 7.318 4.20229C7.86166 4.05798 8.43381 4.05997 8.97645 4.20807L27.1729 9.16907L35.4748 2.14864C36.5182 1.26562 37.7475 0.629598 39.0709 0.288026C40.3945 -0.0535469 41.778 -0.0918491 43.1184 0.175978H43.1158ZM41.8602 5.13953C41.3105 5.06613 40.7516 5.10859 40.2193 5.26417C39.687 5.41976 39.1932 5.68503 38.7696 6.04293L29.4545 13.9259C29.1352 14.1958 28.7551 14.3839 28.347 14.4741C27.9389 14.5644 27.5149 14.554 27.1116 14.444L8.70337 9.42171L8.53238 9.59014L21.7905 16.9551C22.1222 17.1393 22.4091 17.3945 22.6307 17.7024C22.8524 18.0103 23.0033 18.3633 23.0728 18.7362C23.1423 19.1092 23.1285 19.4929 23.0326 19.8599C22.9367 20.227 22.7609 20.5683 22.5179 20.8596L13.5243 31.6493C13.2273 32.0057 12.8396 32.2755 12.4021 32.43C11.9646 32.5845 11.4935 32.6181 11.0385 32.5271L7.8816 31.8968L6.84035 32.938L10.814 34.926C11.3573 35.1976 11.7979 35.6382 12.0696 36.1815L14.0602 40.1549L15.0989 39.1137L14.4686 35.957C14.3776 35.502 14.4112 35.0309 14.5657 34.5934C14.7202 34.156 14.99 33.7683 15.3465 33.4713L26.1393 24.4783C26.4306 24.2352 26.7719 24.0594 27.139 23.9635C27.5061 23.8676 27.8898 23.8539 28.2627 23.9234C28.6357 23.9928 28.9888 24.1438 29.2967 24.3654C29.6046 24.5871 29.8598 24.8739 30.044 25.2056L37.4068 38.463L37.5752 38.292L32.5553 19.8847C32.4455 19.4813 32.4356 19.0572 32.5263 18.6491C32.617 18.241 32.8056 17.861 33.0759 17.542L40.9567 8.2274C41.6841 7.36739 42.0082 6.24708 41.8602 5.13953Z" fill="white"/>
</svg>
