<svg width="49" height="49" viewBox="0 0 49 49" fill="none" xmlns="http://www.w3.org/2000/svg">
<path d="M11.7347 4.90177C11.5613 4.67871 11.3424 4.49509 11.0926 4.36312C10.8427 4.23115 10.5677 4.15385 10.2857 4.13634C10.0037 4.11884 9.72122 4.16154 9.45699 4.2616C9.19277 4.36166 8.95286 4.5168 8.7532 4.71671L5.71592 7.75695C4.29715 9.17867 3.7743 11.1908 4.39409 12.9562C6.9694 20.2619 11.1535 26.8955 16.6372 32.3667C22.1084 37.8505 28.7419 42.0346 36.0476 44.6099C37.813 45.2297 39.8251 44.7069 41.2468 43.2881L44.2841 40.2508C44.484 40.0511 44.6391 39.8112 44.7392 39.547C44.8393 39.2828 44.882 39.0003 44.8645 38.7183C44.847 38.4363 44.7697 38.1612 44.6377 37.9114C44.5057 37.6616 44.3221 37.4427 44.099 37.2693L37.3224 31.9995C37.0839 31.8151 36.8067 31.687 36.5117 31.625C36.2166 31.5629 35.9113 31.5685 35.6187 31.6412L29.1858 33.248C28.3271 33.4611 27.4279 33.449 26.5752 33.2128C25.7225 32.9766 24.9452 32.5243 24.3185 31.8997L17.1043 24.6824C16.4791 24.056 16.0263 23.2789 15.7896 22.4262C15.5528 21.5735 15.5403 20.6741 15.753 19.8151L17.3627 13.3821C17.4355 13.0895 17.441 12.7842 17.3789 12.4892C17.3169 12.1941 17.1888 11.9169 17.0044 11.6784L11.7347 4.90177ZM6.53546 2.50189C7.04949 1.98769 7.66703 1.58874 8.34707 1.33151C9.02712 1.07428 9.7541 0.964668 10.4798 1.00995C11.2054 1.05524 11.9131 1.25438 12.5559 1.59416C13.1987 1.93394 13.7619 2.40658 14.208 2.98069L19.4777 9.7544C20.4441 10.9969 20.7848 12.6155 20.403 14.1429L18.7962 20.5759C18.7137 20.9091 18.7185 21.258 18.8101 21.5888C18.9017 21.9196 19.077 22.2213 19.3191 22.4647L26.5363 29.6819C26.7799 29.9245 27.0821 30.1001 27.4135 30.1917C27.7449 30.2833 28.0943 30.2878 28.428 30.2048L34.8579 28.598C35.6118 28.4106 36.3983 28.3965 37.1584 28.5568C37.9185 28.7171 38.6324 29.0475 39.2464 29.5233L46.0201 34.793C48.4552 36.6877 48.6785 40.286 46.4989 42.4627L43.4616 45.5C41.2879 47.6737 38.0392 48.6283 35.0107 47.562C27.2579 44.8378 20.2195 40.3999 14.4195 34.5786C8.59861 28.7794 4.16072 21.742 1.43612 13.9902C0.372778 10.9646 1.32744 7.71289 3.50112 5.53919L6.53546 2.50189Z" fill="white" stroke="white"/>
</svg>
