<svg width="47" height="47" viewBox="0 0 47 47" fill="none" xmlns="http://www.w3.org/2000/svg">
<path d="M37.6 31.3333H32.9V36.5556H37.6M37.6 20.8889H32.9V26.1111H37.6M42.3 41.7778H23.5V36.5556H28.2V31.3333H23.5V26.1111H28.2V20.8889H23.5V15.6667H42.3M18.8 10.4444H14.1V5.22222H18.8M18.8 20.8889H14.1V15.6667H18.8M18.8 31.3333H14.1V26.1111H18.8M18.8 41.7778H14.1V36.5556H18.8M9.4 10.4444H4.7V5.22222H9.4M9.4 20.8889H4.7V15.6667H9.4M9.4 31.3333H4.7V26.1111H9.4M9.4 41.7778H4.7V36.5556H9.4M23.5 10.4444V0H0V47H47V10.4444H23.5Z" fill="white"/>
</svg>
