<svg width="53" height="44" viewBox="0 0 53 44" fill="none" xmlns="http://www.w3.org/2000/svg">
<path d="M35.9 13.6877C39.0325 17.9105 39.0325 26.0901 35.9 30.3129M42.95 5.37506C52.3218 14.4192 52.3782 29.6408 42.95 38.6255M3 29.028V14.9702C3 13.6069 4.0528 12.5002 5.35 12.5002H13.7771C14.0881 12.499 14.3956 12.4343 14.6812 12.3098C14.9667 12.1853 15.2243 12.0036 15.4385 11.7758L22.4885 3.72917C23.969 2.17114 26.5 3.27553 26.5 5.47719V38.5234C26.5 40.7417 23.9385 41.8366 22.4674 40.2477L15.4409 32.2462C15.2261 32.0118 14.9658 31.8247 14.6764 31.6964C14.3869 31.5681 14.0744 31.5014 13.7583 31.5004H5.35C4.0528 31.5004 3 30.3936 3 29.028Z" stroke="#05317C" stroke-width="5" stroke-linecap="round" stroke-linejoin="round"/>
</svg>
