<svg width="47" height="47" viewBox="0 0 47 47" fill="none" xmlns="http://www.w3.org/2000/svg">
<path d="M4.7 0C3.45348 0 2.25802 0.495177 1.3766 1.3766C0.495177 2.25802 0 3.45348 0 4.7V32.9C0 34.1465 0.495177 35.342 1.3766 36.2234C2.25802 37.1048 3.45348 37.6 4.7 37.6H14.1V44.65C14.1 45.2733 14.3476 45.871 14.7883 46.3117C15.229 46.7524 15.8267 47 16.45 47H17.625C18.2125 47 18.8 46.765 19.27 46.3185L27.965 37.6H42.3C43.5465 37.6 44.742 37.1048 45.6234 36.2234C46.5048 35.342 47 34.1465 47 32.9V4.7C47 3.45348 46.5048 2.25802 45.6234 1.3766C44.742 0.495177 43.5465 0 42.3 0H4.7ZM4.7 4.7H42.3V32.9H26.038L18.8 40.138V32.9H4.7V4.7ZM23.9465 8.225C21.855 8.225 20.1865 8.648 18.9175 9.494C17.625 10.34 16.967 11.75 17.0845 13.3715H21.714C21.714 12.7135 21.949 12.22 22.325 11.891C22.795 11.562 23.312 11.3975 23.9465 11.3975C24.675 11.3975 25.3095 11.5855 25.7325 12.0085C26.1555 12.408 26.367 12.925 26.367 13.63C26.367 14.288 26.179 14.8755 25.85 15.369C25.4505 15.886 24.957 16.309 24.346 16.638C23.124 17.39 22.325 18.048 21.8315 18.612C21.385 19.176 21.15 19.975 21.15 21.15H25.85C25.85 20.492 25.9675 19.975 26.179 19.552C26.3905 19.1525 26.79 18.8 27.401 18.4475C28.482 17.954 29.375 17.296 30.0565 16.45C30.738 15.5805 31.0905 14.664 31.0905 13.63C31.0905 11.985 30.456 10.669 29.187 9.682C27.918 8.7185 26.1555 8.225 23.9465 8.225ZM21.15 23.5V28.2H25.85V23.5H21.15Z" fill="white"/>
</svg>
