<svg width="48" height="61" viewBox="0 0 48 61" fill="none" xmlns="http://www.w3.org/2000/svg">
<path d="M8.84582 0H22.4013C25.5062 0 27.2632 0.449155 29.3245 2.46428L29.5644 2.70221L45.3176 18.6642C47.5215 20.9172 47.9696 22.4796 47.9976 25.8883L48 52.0946C48 57.8936 45.1764 60.8798 39.5036 60.9964L39.153 61H8.84704C3.08538 61 0.119325 58.1582 0.0036531 52.4479L0 52.0946V8.93331C0 3.13437 2.84917 0.121393 8.49759 0.00364182L8.84582 0ZM21.7742 4.58016H9.10152C6.23043 4.58016 4.69383 6.1 4.59764 8.75001L4.59277 9.0195V52.0096C4.59277 54.7628 6.03683 56.3167 8.79347 56.4138L9.07351 56.4198H38.9241C41.7951 56.4198 43.305 54.9534 43.3987 52.2803L43.4036 52.0096V26.46H27.1365C23.7005 26.46 21.8777 24.7957 21.7767 21.4137L21.773 21.1102L21.7742 4.58016ZM36.7847 32.6632C37.2413 33.1185 37.4977 33.7359 37.4977 34.3797C37.4977 35.0235 37.2413 35.6409 36.7847 36.0962L20.2425 52.5887C19.7858 53.0438 19.1666 53.2995 18.5208 53.2995C17.8751 53.2995 17.2558 53.0438 16.7991 52.5887L8.78007 44.5937C8.33648 44.1358 8.09103 43.5225 8.09658 42.886C8.10213 42.2494 8.35823 41.6405 8.80974 41.1903C9.26124 40.7402 9.87202 40.4848 10.5105 40.4793C11.149 40.4738 11.7641 40.7185 12.2234 41.1607L16.7991 45.7215L18.4417 47.2911L20.2425 45.7215L33.3402 32.6632C33.5663 32.4377 33.8348 32.2588 34.1303 32.1367C34.4258 32.0146 34.7426 31.9518 35.0625 31.9518C35.3823 31.9518 35.6991 32.0146 35.9946 32.1367C36.2901 32.2588 36.5586 32.4377 36.7847 32.6632ZM26.0821 5.46269V20.57C26.0821 21.642 26.4875 22.1081 27.4628 22.1591L27.6528 22.1639H42.5196L26.0821 5.46269Z" fill="#3494E4"/>
</svg>
