<svg width="15" height="8" viewBox="0 0 15 8" fill="none" xmlns="http://www.w3.org/2000/svg">
<path d="M13.8356 0.210271L7.97966 6.3579C7.85189 6.49273 7.67941 6.56836 7.49968 6.56836C7.31995 6.56836 7.14747 6.49273 7.0197 6.3579L1.16373 0.211604C1.03517 0.0768444 0.862126 0.00133391 0.681877 0.00133389C0.501626 0.00133388 0.328587 0.0768444 0.200024 0.211604C0.136716 0.277436 0.0864033 0.356119 0.05205 0.443017C0.0176977 0.529914 -5.85315e-07 0.623267 -6.02217e-07 0.717574C-6.19118e-07 0.811881 0.0176977 0.905234 0.0520499 0.992131C0.0864032 1.07903 0.136716 1.15771 0.200024 1.22354L6.05475 7.36984C6.44038 7.77372 6.95923 8 7.49968 8C8.04012 8 8.55898 7.77372 8.94461 7.36984L14.7993 1.22354C14.8628 1.15769 14.9133 1.07893 14.9478 0.991906C14.9822 0.904885 15 0.811376 15 0.716908C15 0.62244 14.9822 0.528932 14.9478 0.441912C14.9133 0.354891 14.8628 0.276124 14.7993 0.210271C14.6708 0.0755119 14.4977 1.3866e-06 14.3175 1.37084e-06C14.1372 1.35509e-06 13.9642 0.0755118 13.8356 0.210271Z" fill="white"/>
</svg>
