<svg width="60" height="60" viewBox="0 0 60 60" fill="none" xmlns="http://www.w3.org/2000/svg">
<path d="M51.6583 54V36.472L57.3838 32.536C58.7604 31.5894 59.676 30.1735 59.9291 28.5997C60.1822 27.0259 59.7521 25.4231 58.7334 24.144L55.5112 20.1C54.574 18.9202 53.2027 18.1016 51.6583 17.8V16C51.6582 15.4696 51.4314 14.961 51.0277 14.586L35.9607 0.586C35.5571 0.210901 35.0097 0.000113275 34.4389 0H6.45729C4.74471 0 3.10227 0.632141 1.8913 1.75736C0.68032 2.88258 0 4.4087 0 6V54C0 55.5913 0.68032 57.1174 1.8913 58.2426C3.10227 59.3679 4.74471 60 6.45729 60H45.201C46.9136 60 48.5561 59.3679 49.767 58.2426C50.978 57.1174 51.6583 55.5913 51.6583 54ZM4.30486 54V6C4.30486 5.46957 4.53164 4.96086 4.93529 4.58579C5.33895 4.21071 5.88643 4 6.45729 4H32.2865V15.014C32.2865 16.664 33.7264 18 35.5 18H47.3535V18.34C47.0521 18.484 46.7616 18.652 46.4796 18.846L40.851 22.716C40.7851 22.5094 40.6492 22.328 40.4634 22.199C40.2776 22.07 40.0519 22.0002 39.82 22H11.8384C11.5529 22 11.2792 22.1054 11.0774 22.2929C10.8755 22.4804 10.7622 22.7348 10.7622 23C10.7622 23.2652 10.8755 23.5196 11.0774 23.7071C11.2792 23.8946 11.5529 24 11.8384 24H38.9827L33.1647 28H11.8384C11.5529 28 11.2792 28.1054 11.0774 28.2929C10.8755 28.4804 10.7622 28.7348 10.7622 29C10.7622 29.2652 10.8755 29.5196 11.0774 29.7071C11.2792 29.8946 11.5529 30 11.8384 30H30.2567L24.4387 34H11.8384C11.5529 34 11.2792 34.1054 11.0774 34.2929C10.8755 34.4804 10.7622 34.7348 10.7622 35C10.7622 35.2652 10.8755 35.5196 11.0774 35.7071C11.2792 35.8946 11.5529 36 11.8384 36H21.5308L15.8333 39.916C15.795 39.9428 15.7577 39.9709 15.7214 40H11.8384C11.5529 40 11.2792 40.1054 11.0774 40.2929C10.8755 40.4804 10.7622 40.7348 10.7622 41C10.7622 41.2652 10.8755 41.5196 11.0774 41.7071C11.2792 41.8946 11.5529 42 11.8384 42H14.7076L11.6188 51.408C11.5206 51.7069 11.4991 52.0231 11.5562 52.3311C11.6132 52.6391 11.7471 52.9304 11.9472 53.1816C12.1472 53.4329 12.4079 53.637 12.7082 53.7778C13.0085 53.9185 13.3402 53.9919 13.6765 53.992L25.4546 54C25.9164 54.0006 26.3662 53.8632 26.7375 53.608L47.3535 39.432V54C47.3535 54.5304 47.1267 55.0391 46.723 55.4142C46.3194 55.7893 45.7719 56 45.201 56H6.45729C5.88643 56 5.33895 55.7893 4.93529 55.4142C4.53164 55.0391 4.30486 54.5304 4.30486 54ZM35.5 16C35.3607 16 35.2227 15.9745 35.094 15.9249C34.9652 15.8754 34.8482 15.8028 34.7497 15.7112C34.6512 15.6196 34.573 15.511 34.5197 15.3913C34.4663 15.2717 34.4389 15.1435 34.4389 15.014V4.828L46.4624 16H35.5ZM47.8615 34.108L42.0908 26.84L44.6091 25.108L50.3906 32.368L47.8615 34.108ZM20.6031 41.614L40.3602 28.03L46.1287 35.298L26.5804 48.738L20.6031 41.614ZM18.9242 42.864L24.8477 49.93L24.7465 50L19.12 49.996L17.3249 47.74L18.9242 42.864Z" fill="#3494E4"/>
</svg>
