<svg width="910" height="511" viewBox="0 0 910 511" fill="none" xmlns="http://www.w3.org/2000/svg">
<circle cx="453" cy="60" r="60" fill="#4B6A87"/>
<path d="M434.336 49.832H436.716V54.032C436.716 55.5067 436.548 56.9627 436.212 58.4C435.895 59.8187 435.428 61.144 434.812 62.376C434.215 63.608 433.477 64.7093 432.6 65.68C431.723 66.632 430.733 67.388 429.632 67.948L427.868 65.568C428.857 65.0827 429.753 64.4387 430.556 63.636C431.359 62.8147 432.04 61.8907 432.6 60.864C433.16 59.8187 433.589 58.7173 433.888 57.56C434.187 56.384 434.336 55.208 434.336 54.032V49.832ZM434.868 49.832H437.248V54.032C437.248 55.1707 437.388 56.3 437.668 57.42C437.948 58.5213 438.359 59.576 438.9 60.584C439.46 61.5733 440.123 62.46 440.888 63.244C441.653 64.028 442.512 64.6533 443.464 65.12L441.672 67.472C440.608 66.912 439.656 66.1747 438.816 65.26C437.995 64.3267 437.285 63.2627 436.688 62.068C436.109 60.8733 435.661 59.5947 435.344 58.232C435.027 56.8693 434.868 55.4693 434.868 54.032V49.832ZM445.172 47.732H448.112V73.324H445.172V47.732ZM447.468 57.84H452.088V60.304H447.468V57.84ZM460.066 50.504H462.474V52.38C462.474 53.9667 462.194 55.46 461.634 56.86C461.074 58.26 460.262 59.4827 459.198 60.528C458.134 61.5547 456.836 62.3387 455.306 62.88L453.822 60.556C455.166 60.0893 456.304 59.436 457.238 58.596C458.171 57.756 458.871 56.804 459.338 55.74C459.823 54.6573 460.066 53.5373 460.066 52.38V50.504ZM460.654 50.504H463.034V52.38C463.034 53.4253 463.267 54.4333 463.734 55.404C464.2 56.3747 464.882 57.2427 465.778 58.008C466.674 58.7547 467.766 59.3333 469.054 59.744L467.654 62.04C466.142 61.5547 464.863 60.836 463.818 59.884C462.791 58.932 462.007 57.812 461.466 56.524C460.924 55.2173 460.654 53.836 460.654 52.38V50.504ZM454.634 49.524H468.382V51.904H454.634V49.524ZM471.098 47.732H474.01V63.02H471.098V47.732ZM473.226 53.948H477.622V56.356H473.226V53.948ZM465.778 63.608C467.532 63.608 469.044 63.804 470.314 64.196C471.583 64.5693 472.563 65.12 473.254 65.848C473.944 66.5573 474.29 67.416 474.29 68.424C474.29 69.4507 473.944 70.3187 473.254 71.028C472.563 71.756 471.583 72.3067 470.314 72.68C469.044 73.072 467.532 73.268 465.778 73.268C464.023 73.268 462.502 73.072 461.214 72.68C459.944 72.3067 458.964 71.756 458.274 71.028C457.602 70.3187 457.266 69.4507 457.266 68.424C457.266 67.416 457.602 66.5573 458.274 65.848C458.964 65.12 459.944 64.5693 461.214 64.196C462.502 63.804 464.023 63.608 465.778 63.608ZM465.778 65.932C464.602 65.932 463.594 66.0253 462.754 66.212C461.914 66.3987 461.27 66.6787 460.822 67.052C460.374 67.4253 460.15 67.8827 460.15 68.424C460.15 68.984 460.374 69.46 460.822 69.852C461.27 70.2253 461.914 70.5147 462.754 70.72C463.594 70.9067 464.602 71 465.778 71C466.972 71 467.98 70.9067 468.802 70.72C469.642 70.5147 470.286 70.2253 470.734 69.852C471.182 69.46 471.406 68.984 471.406 68.424C471.406 67.8827 471.182 67.4253 470.734 67.052C470.286 66.6787 469.642 66.3987 468.802 66.212C467.98 66.0253 466.972 65.932 465.778 65.932Z" fill="white"/>
<line x1="455.5" y1="119" x2="455.5" y2="269" stroke="#C4C4C4"/>
<rect x="530" y="162" width="150" height="53" fill="#717E87"/>
<path d="M572.73 182.868H576.888V184.38H572.73V182.868ZM572.586 186.288H576.762V187.818H572.586V186.288ZM576.564 180.042H578.454V189.708H576.564V180.042ZM571.326 181.212H573.342C573.342 182.652 573.048 183.942 572.46 185.082C571.872 186.21 571.008 187.176 569.868 187.98C568.74 188.784 567.366 189.42 565.746 189.888L565.008 188.394C566.4 187.998 567.564 187.494 568.5 186.882C569.448 186.258 570.156 185.544 570.624 184.74C571.092 183.924 571.326 183.042 571.326 182.094V181.212ZM565.872 181.212H572.64V182.742H565.872V181.212ZM573.072 189.906C574.188 189.906 575.154 190.038 575.97 190.302C576.786 190.566 577.416 190.938 577.86 191.418C578.316 191.898 578.544 192.474 578.544 193.146C578.544 193.818 578.316 194.4 577.86 194.892C577.416 195.372 576.786 195.744 575.97 196.008C575.154 196.272 574.188 196.404 573.072 196.404C571.968 196.404 571.002 196.272 570.174 196.008C569.346 195.744 568.704 195.372 568.248 194.892C567.792 194.4 567.564 193.818 567.564 193.146C567.564 192.474 567.792 191.898 568.248 191.418C568.704 190.938 569.346 190.566 570.174 190.302C571.002 190.038 571.968 189.906 573.072 189.906ZM573.072 191.382C572.328 191.382 571.68 191.454 571.128 191.598C570.588 191.73 570.168 191.928 569.868 192.192C569.58 192.456 569.436 192.774 569.436 193.146C569.436 193.53 569.58 193.854 569.868 194.118C570.168 194.382 570.588 194.586 571.128 194.73C571.68 194.862 572.328 194.928 573.072 194.928C573.816 194.928 574.458 194.862 574.998 194.73C575.538 194.586 575.952 194.382 576.24 194.118C576.54 193.854 576.69 193.53 576.69 193.146C576.69 192.774 576.54 192.456 576.24 192.192C575.952 191.928 575.538 191.73 574.998 191.598C574.458 191.454 573.816 191.382 573.072 191.382ZM588.785 182.31H593.735V183.822H588.785V182.31ZM588.785 186.036H593.735V187.566H588.785V186.036ZM585.887 180.96C586.703 180.96 587.435 181.134 588.083 181.482C588.731 181.818 589.241 182.286 589.613 182.886C589.985 183.474 590.171 184.158 590.171 184.938C590.171 185.706 589.985 186.39 589.613 186.99C589.241 187.578 588.731 188.04 588.083 188.376C587.435 188.712 586.703 188.88 585.887 188.88C585.083 188.88 584.357 188.712 583.709 188.376C583.061 188.04 582.551 187.578 582.179 186.99C581.807 186.39 581.621 185.706 581.621 184.938C581.621 184.158 581.807 183.474 582.179 182.886C582.551 182.286 583.061 181.818 583.709 181.482C584.357 181.134 585.083 180.96 585.887 180.96ZM585.887 182.562C585.419 182.562 584.999 182.664 584.627 182.868C584.255 183.06 583.955 183.33 583.727 183.678C583.511 184.026 583.403 184.446 583.403 184.938C583.403 185.406 583.511 185.82 583.727 186.18C583.955 186.528 584.255 186.804 584.627 187.008C584.999 187.2 585.419 187.296 585.887 187.296C586.367 187.296 586.793 187.2 587.165 187.008C587.549 186.804 587.843 186.528 588.047 186.18C588.263 185.82 588.371 185.406 588.371 184.938C588.371 184.446 588.263 184.026 588.047 183.678C587.843 183.33 587.549 183.06 587.165 182.868C586.793 182.664 586.367 182.562 585.887 182.562ZM593.123 180.042H595.013V189.726H593.123V180.042ZM589.541 190.086C590.681 190.086 591.665 190.212 592.493 190.464C593.321 190.716 593.957 191.082 594.401 191.562C594.857 192.03 595.085 192.6 595.085 193.272C595.085 193.944 594.857 194.52 594.401 195C593.957 195.48 593.321 195.84 592.493 196.08C591.665 196.332 590.681 196.458 589.541 196.458C588.401 196.458 587.417 196.332 586.589 196.08C585.761 195.84 585.119 195.48 584.663 195C584.207 194.52 583.979 193.944 583.979 193.272C583.979 192.6 584.207 192.03 584.663 191.562C585.119 191.082 585.761 190.716 586.589 190.464C587.417 190.212 588.401 190.086 589.541 190.086ZM589.541 191.562C588.761 191.562 588.095 191.628 587.543 191.76C586.991 191.892 586.571 192.084 586.283 192.336C585.995 192.588 585.851 192.9 585.851 193.272C585.851 193.644 585.995 193.962 586.283 194.226C586.571 194.478 586.991 194.67 587.543 194.802C588.095 194.934 588.761 195 589.541 195C590.321 195 590.981 194.934 591.521 194.802C592.073 194.67 592.493 194.478 592.781 194.226C593.081 193.962 593.231 193.644 593.231 193.272C593.231 192.9 593.081 192.588 592.781 192.336C592.493 192.084 592.073 191.892 591.521 191.76C590.981 191.628 590.321 191.562 589.541 191.562ZM602.121 182.49H603.633V184.794C603.633 185.706 603.525 186.6 603.309 187.476C603.093 188.34 602.775 189.156 602.355 189.924C601.947 190.692 601.455 191.37 600.879 191.958C600.303 192.546 599.667 193.014 598.971 193.362L597.873 191.868C598.509 191.568 599.085 191.166 599.601 190.662C600.129 190.158 600.579 189.588 600.951 188.952C601.323 188.304 601.611 187.626 601.815 186.918C602.019 186.21 602.121 185.502 602.121 184.794V182.49ZM602.517 182.49H604.029V184.794C604.029 185.478 604.131 186.156 604.335 186.828C604.539 187.5 604.827 188.136 605.199 188.736C605.571 189.336 606.015 189.87 606.531 190.338C607.047 190.806 607.629 191.178 608.277 191.454L607.233 192.948C606.513 192.624 605.865 192.186 605.289 191.634C604.713 191.082 604.215 190.446 603.795 189.726C603.387 188.994 603.069 188.214 602.841 187.386C602.625 186.546 602.517 185.682 602.517 184.794V182.49ZM598.467 181.662H607.683V183.228H598.467V181.662ZM609.591 180.042H611.481V196.494H609.591V180.042ZM619.004 188.394H620.876V192.012H619.004V188.394ZM626.24 180.042H628.13V192.516H626.24V180.042ZM616.628 194.622H628.526V196.152H616.628V194.622ZM616.628 191.31H618.518V195.036H616.628V191.31ZM614.666 189.024L614.432 187.494C615.44 187.482 616.538 187.47 617.726 187.458C618.914 187.434 620.126 187.392 621.362 187.332C622.61 187.26 623.81 187.152 624.962 187.008L625.106 188.358C623.93 188.55 622.724 188.694 621.488 188.79C620.264 188.886 619.07 188.946 617.906 188.97C616.742 188.994 615.662 189.012 614.666 189.024ZM623.018 189.672H626.708V191.004H623.018V189.672ZM619.742 180.654C620.558 180.654 621.266 180.774 621.866 181.014C622.478 181.254 622.952 181.596 623.288 182.04C623.636 182.472 623.81 182.976 623.81 183.552C623.81 184.128 623.636 184.638 623.288 185.082C622.952 185.526 622.478 185.868 621.866 186.108C621.266 186.336 620.558 186.45 619.742 186.45C618.95 186.45 618.242 186.336 617.618 186.108C617.006 185.868 616.526 185.526 616.178 185.082C615.842 184.638 615.674 184.128 615.674 183.552C615.674 182.976 615.842 182.472 616.178 182.04C616.526 181.596 617.006 181.254 617.618 181.014C618.242 180.774 618.95 180.654 619.742 180.654ZM619.742 182.04C619.07 182.04 618.518 182.178 618.086 182.454C617.666 182.718 617.456 183.084 617.456 183.552C617.456 184.02 617.666 184.392 618.086 184.668C618.518 184.932 619.07 185.064 619.742 185.064C620.414 185.064 620.96 184.932 621.38 184.668C621.8 184.392 622.01 184.02 622.01 183.552C622.01 183.24 621.914 182.976 621.722 182.76C621.53 182.532 621.266 182.358 620.93 182.238C620.594 182.106 620.198 182.04 619.742 182.04ZM642.726 180.042H644.616V188.448H642.726V180.042ZM633.834 189.24H644.616V193.416H635.724V195.414H633.87V192.048H642.762V190.716H633.834V189.24ZM633.87 194.856H645.12V196.332H633.87V194.856ZM635.148 180.474H636.714V181.716C636.714 182.724 636.528 183.678 636.156 184.578C635.796 185.466 635.262 186.246 634.554 186.918C633.858 187.578 633.012 188.076 632.016 188.412L631.08 186.918C631.74 186.702 632.322 186.414 632.826 186.054C633.33 185.694 633.75 185.286 634.086 184.83C634.434 184.362 634.698 183.864 634.878 183.336C635.058 182.808 635.148 182.268 635.148 181.716V180.474ZM635.526 180.474H637.056V181.716C637.056 182.244 637.146 182.76 637.326 183.264C637.518 183.768 637.782 184.242 638.118 184.686C638.466 185.118 638.886 185.502 639.378 185.838C639.87 186.162 640.434 186.426 641.07 186.63L640.152 188.106C639.42 187.866 638.766 187.542 638.19 187.134C637.626 186.714 637.14 186.222 636.732 185.658C636.336 185.094 636.036 184.482 635.832 183.822C635.628 183.162 635.526 182.46 635.526 181.716V180.474Z" fill="white"/>
<line x1="455" y1="187.5" x2="530" y2="187.5" stroke="#C4C4C4"/>
<line x1="75" y1="268.5" x2="836" y2="268.5" stroke="#C4C4C4"/>
<rect y="344" width="150" height="53" fill="#717E87"/>
<path d="M38.666 366.164H42.122V367.712H38.666V366.164ZM41.564 362.042H43.454V371.834H41.564V362.042ZM37.982 372.266C39.134 372.266 40.118 372.392 40.934 372.644C41.762 372.884 42.398 373.238 42.842 373.706C43.298 374.162 43.526 374.72 43.526 375.38C43.526 376.364 43.028 377.126 42.032 377.666C41.048 378.206 39.698 378.476 37.982 378.476C36.266 378.476 34.91 378.206 33.914 377.666C32.918 377.126 32.42 376.364 32.42 375.38C32.42 374.72 32.642 374.162 33.086 373.706C33.542 373.238 34.184 372.884 35.012 372.644C35.852 372.392 36.842 372.266 37.982 372.266ZM37.982 373.706C37.202 373.706 36.536 373.772 35.984 373.904C35.444 374.036 35.03 374.222 34.742 374.462C34.454 374.702 34.31 375.008 34.31 375.38C34.31 375.728 34.454 376.028 34.742 376.28C35.03 376.532 35.444 376.724 35.984 376.856C36.536 376.976 37.202 377.036 37.982 377.036C38.762 377.036 39.422 376.976 39.962 376.856C40.502 376.724 40.916 376.532 41.204 376.28C41.504 376.028 41.654 375.728 41.654 375.38C41.654 375.008 41.504 374.702 41.204 374.462C40.916 374.222 40.502 374.036 39.962 373.904C39.422 373.772 38.762 373.706 37.982 373.706ZM33.842 363.698H35.39V364.886C35.39 365.918 35.204 366.89 34.832 367.802C34.472 368.702 33.95 369.5 33.266 370.196C32.582 370.88 31.754 371.396 30.782 371.744L29.828 370.25C30.464 370.022 31.028 369.722 31.52 369.35C32.024 368.978 32.45 368.552 32.798 368.072C33.146 367.592 33.404 367.082 33.572 366.542C33.752 366.002 33.842 365.45 33.842 364.886V363.698ZM34.22 363.698H35.75V364.886C35.75 365.558 35.9 366.218 36.2 366.866C36.5 367.514 36.938 368.096 37.514 368.612C38.09 369.116 38.792 369.518 39.62 369.818L38.684 371.294C37.736 370.958 36.926 370.472 36.254 369.836C35.594 369.188 35.09 368.438 34.742 367.586C34.394 366.722 34.22 365.822 34.22 364.886V363.698ZM30.368 363.14H39.17V364.67H30.368V363.14ZM58.0326 362.024H59.9226V378.512H58.0326V362.024ZM47.2686 363.374H49.1406V367.568H53.2986V363.374H55.1706V374.606H47.2686V363.374ZM49.1406 369.044V373.076H53.2986V369.044H49.1406ZM66.8332 363.392H68.3632V366.092C68.3632 367.04 68.2552 367.976 68.0392 368.9C67.8352 369.812 67.5352 370.664 67.1392 371.456C66.7552 372.248 66.2812 372.956 65.7172 373.58C65.1532 374.192 64.5172 374.678 63.8092 375.038L62.6752 373.508C63.3112 373.196 63.8872 372.782 64.4032 372.266C64.9192 371.738 65.3572 371.144 65.7172 370.484C66.0772 369.812 66.3532 369.104 66.5452 368.36C66.7372 367.604 66.8332 366.848 66.8332 366.092V363.392ZM67.1752 363.392H68.7052V366.092C68.7052 366.824 68.7952 367.55 68.9752 368.27C69.1552 368.978 69.4192 369.656 69.7672 370.304C70.1272 370.94 70.5532 371.51 71.0452 372.014C71.5372 372.518 72.0892 372.92 72.7012 373.22L71.5492 374.732C70.8652 374.372 70.2532 373.898 69.7132 373.31C69.1852 372.71 68.7292 372.026 68.3452 371.258C67.9732 370.49 67.6852 369.668 67.4812 368.792C67.2772 367.916 67.1752 367.016 67.1752 366.092V363.392ZM73.7992 362.042H75.6892V378.494H73.7992V362.042ZM75.2752 368.54H78.2452V370.124H75.2752V368.54ZM87.7838 365.822H92.0678V367.37H87.7838V365.822ZM84.0038 362.762C84.8318 362.762 85.5698 362.924 86.2178 363.248C86.8658 363.572 87.3698 364.028 87.7298 364.616C88.1018 365.192 88.2878 365.858 88.2878 366.614C88.2878 367.37 88.1018 368.042 87.7298 368.63C87.3698 369.206 86.8658 369.662 86.2178 369.998C85.5698 370.322 84.8318 370.484 84.0038 370.484C83.1878 370.484 82.4558 370.322 81.8078 369.998C81.1598 369.662 80.6498 369.206 80.2778 368.63C79.9178 368.042 79.7378 367.37 79.7378 366.614C79.7378 365.858 79.9178 365.192 80.2778 364.616C80.6498 364.028 81.1598 363.572 81.8078 363.248C82.4558 362.924 83.1878 362.762 84.0038 362.762ZM84.0218 364.328C83.5418 364.328 83.1098 364.424 82.7258 364.616C82.3538 364.796 82.0598 365.06 81.8438 365.408C81.6398 365.756 81.5378 366.158 81.5378 366.614C81.5378 367.07 81.6398 367.472 81.8438 367.82C82.0598 368.168 82.3538 368.438 82.7258 368.63C83.0978 368.81 83.5238 368.9 84.0038 368.9C84.4838 368.9 84.9098 368.81 85.2818 368.63C85.6538 368.438 85.9478 368.168 86.1638 367.82C86.3798 367.472 86.4878 367.07 86.4878 366.614C86.4878 366.158 86.3798 365.756 86.1638 365.408C85.9478 365.06 85.6538 364.796 85.2818 364.616C84.9218 364.424 84.5018 364.328 84.0218 364.328ZM91.2398 362.042H93.1298V370.862H91.2398V362.042ZM82.4378 371.654H84.3098V373.49H91.2578V371.654H93.1298V378.278H82.4378V371.654ZM84.3098 374.948V376.766H91.2578V374.948H84.3098ZM96.7644 377V375.29H99.6804V366.074H97.3044V364.76C97.9284 364.652 98.4684 364.514 98.9244 364.346C99.3924 364.178 99.8184 363.974 100.202 363.734H101.768V375.29H104.342V377H96.7644ZM107.246 369.458H108.614C109.778 369.458 110.792 369.446 111.656 369.422C112.532 369.398 113.342 369.356 114.086 369.296C114.83 369.236 115.586 369.14 116.354 369.008L116.534 370.484C115.754 370.616 114.98 370.718 114.212 370.79C113.444 370.85 112.616 370.892 111.728 370.916C110.84 370.928 109.802 370.934 108.614 370.934H107.246V369.458ZM107.246 363.014H115.112V364.508H109.118V370.124H107.246V363.014ZM108.524 366.182H114.644V367.676H108.524V366.182ZM117.992 362.042H119.882V371.834H117.992V362.042ZM109.136 372.59H119.882V378.278H109.136V372.59ZM118.046 374.084H110.972V376.784H118.046V374.084Z" fill="white"/>
<line x1="75.5" y1="269" x2="75.5" y2="344" stroke="#C4C4C4"/>
<rect x="190" y="344" width="150" height="53" fill="#717E87"/>
<path d="M228.666 366.164H232.122V367.712H228.666V366.164ZM231.564 362.042H233.454V371.834H231.564V362.042ZM227.982 372.266C229.134 372.266 230.118 372.392 230.934 372.644C231.762 372.884 232.398 373.238 232.842 373.706C233.298 374.162 233.526 374.72 233.526 375.38C233.526 376.364 233.028 377.126 232.032 377.666C231.048 378.206 229.698 378.476 227.982 378.476C226.266 378.476 224.91 378.206 223.914 377.666C222.918 377.126 222.42 376.364 222.42 375.38C222.42 374.72 222.642 374.162 223.086 373.706C223.542 373.238 224.184 372.884 225.012 372.644C225.852 372.392 226.842 372.266 227.982 372.266ZM227.982 373.706C227.202 373.706 226.536 373.772 225.984 373.904C225.444 374.036 225.03 374.222 224.742 374.462C224.454 374.702 224.31 375.008 224.31 375.38C224.31 375.728 224.454 376.028 224.742 376.28C225.03 376.532 225.444 376.724 225.984 376.856C226.536 376.976 227.202 377.036 227.982 377.036C228.762 377.036 229.422 376.976 229.962 376.856C230.502 376.724 230.916 376.532 231.204 376.28C231.504 376.028 231.654 375.728 231.654 375.38C231.654 375.008 231.504 374.702 231.204 374.462C230.916 374.222 230.502 374.036 229.962 373.904C229.422 373.772 228.762 373.706 227.982 373.706ZM223.842 363.698H225.39V364.886C225.39 365.918 225.204 366.89 224.832 367.802C224.472 368.702 223.95 369.5 223.266 370.196C222.582 370.88 221.754 371.396 220.782 371.744L219.828 370.25C220.464 370.022 221.028 369.722 221.52 369.35C222.024 368.978 222.45 368.552 222.798 368.072C223.146 367.592 223.404 367.082 223.572 366.542C223.752 366.002 223.842 365.45 223.842 364.886V363.698ZM224.22 363.698H225.75V364.886C225.75 365.558 225.9 366.218 226.2 366.866C226.5 367.514 226.938 368.096 227.514 368.612C228.09 369.116 228.792 369.518 229.62 369.818L228.684 371.294C227.736 370.958 226.926 370.472 226.254 369.836C225.594 369.188 225.09 368.438 224.742 367.586C224.394 366.722 224.22 365.822 224.22 364.886V363.698ZM220.368 363.14H229.17V364.67H220.368V363.14ZM248.033 362.024H249.923V378.512H248.033V362.024ZM237.269 363.374H239.141V367.568H243.299V363.374H245.171V374.606H237.269V363.374ZM239.141 369.044V373.076H243.299V369.044H239.141ZM256.833 363.392H258.363V366.092C258.363 367.04 258.255 367.976 258.039 368.9C257.835 369.812 257.535 370.664 257.139 371.456C256.755 372.248 256.281 372.956 255.717 373.58C255.153 374.192 254.517 374.678 253.809 375.038L252.675 373.508C253.311 373.196 253.887 372.782 254.403 372.266C254.919 371.738 255.357 371.144 255.717 370.484C256.077 369.812 256.353 369.104 256.545 368.36C256.737 367.604 256.833 366.848 256.833 366.092V363.392ZM257.175 363.392H258.705V366.092C258.705 366.824 258.795 367.55 258.975 368.27C259.155 368.978 259.419 369.656 259.767 370.304C260.127 370.94 260.553 371.51 261.045 372.014C261.537 372.518 262.089 372.92 262.701 373.22L261.549 374.732C260.865 374.372 260.253 373.898 259.713 373.31C259.185 372.71 258.729 372.026 258.345 371.258C257.973 370.49 257.685 369.668 257.481 368.792C257.277 367.916 257.175 367.016 257.175 366.092V363.392ZM263.799 362.042H265.689V378.494H263.799V362.042ZM265.275 368.54H268.245V370.124H265.275V368.54ZM277.784 365.822H282.068V367.37H277.784V365.822ZM274.004 362.762C274.832 362.762 275.57 362.924 276.218 363.248C276.866 363.572 277.37 364.028 277.73 364.616C278.102 365.192 278.288 365.858 278.288 366.614C278.288 367.37 278.102 368.042 277.73 368.63C277.37 369.206 276.866 369.662 276.218 369.998C275.57 370.322 274.832 370.484 274.004 370.484C273.188 370.484 272.456 370.322 271.808 369.998C271.16 369.662 270.65 369.206 270.278 368.63C269.918 368.042 269.738 367.37 269.738 366.614C269.738 365.858 269.918 365.192 270.278 364.616C270.65 364.028 271.16 363.572 271.808 363.248C272.456 362.924 273.188 362.762 274.004 362.762ZM274.022 364.328C273.542 364.328 273.11 364.424 272.726 364.616C272.354 364.796 272.06 365.06 271.844 365.408C271.64 365.756 271.538 366.158 271.538 366.614C271.538 367.07 271.64 367.472 271.844 367.82C272.06 368.168 272.354 368.438 272.726 368.63C273.098 368.81 273.524 368.9 274.004 368.9C274.484 368.9 274.91 368.81 275.282 368.63C275.654 368.438 275.948 368.168 276.164 367.82C276.38 367.472 276.488 367.07 276.488 366.614C276.488 366.158 276.38 365.756 276.164 365.408C275.948 365.06 275.654 364.796 275.282 364.616C274.922 364.424 274.502 364.328 274.022 364.328ZM281.24 362.042H283.13V370.862H281.24V362.042ZM272.438 371.654H274.31V373.49H281.258V371.654H283.13V378.278H272.438V371.654ZM274.31 374.948V376.766H281.258V374.948H274.31ZM286.026 377V375.794C287.334 374.63 288.426 373.568 289.302 372.608C290.178 371.636 290.832 370.736 291.264 369.908C291.708 369.08 291.93 368.306 291.93 367.586C291.93 367.106 291.846 366.686 291.678 366.326C291.522 365.954 291.276 365.672 290.94 365.48C290.616 365.276 290.202 365.174 289.698 365.174C289.182 365.174 288.708 365.318 288.276 365.606C287.844 365.882 287.448 366.224 287.088 366.632L285.918 365.48C286.482 364.856 287.076 364.37 287.7 364.022C288.336 363.674 289.092 363.5 289.968 363.5C290.772 363.5 291.474 363.668 292.074 364.004C292.674 364.328 293.136 364.79 293.46 365.39C293.796 365.978 293.964 366.674 293.964 367.478C293.964 368.33 293.754 369.194 293.334 370.07C292.914 370.934 292.338 371.81 291.606 372.698C290.874 373.574 290.04 374.462 289.104 375.362C289.452 375.326 289.818 375.296 290.202 375.272C290.598 375.236 290.952 375.218 291.264 375.218H294.594V377H286.026ZM297.246 369.458H298.614C299.778 369.458 300.792 369.446 301.656 369.422C302.532 369.398 303.342 369.356 304.086 369.296C304.83 369.236 305.586 369.14 306.354 369.008L306.534 370.484C305.754 370.616 304.98 370.718 304.212 370.79C303.444 370.85 302.616 370.892 301.728 370.916C300.84 370.928 299.802 370.934 298.614 370.934H297.246V369.458ZM297.246 363.014H305.112V364.508H299.118V370.124H297.246V363.014ZM298.524 366.182H304.644V367.676H298.524V366.182ZM307.992 362.042H309.882V371.834H307.992V362.042ZM299.136 372.59H309.882V378.278H299.136V372.59ZM308.046 374.084H300.972V376.784H308.046V374.084Z" fill="white"/>
<line x1="265.5" y1="269" x2="265.5" y2="344" stroke="#C4C4C4"/>
<rect x="380" y="344" width="150" height="53" fill="#717E87"/>
<path d="M418.666 366.164H422.122V367.712H418.666V366.164ZM421.564 362.042H423.454V371.834H421.564V362.042ZM417.982 372.266C419.134 372.266 420.118 372.392 420.934 372.644C421.762 372.884 422.398 373.238 422.842 373.706C423.298 374.162 423.526 374.72 423.526 375.38C423.526 376.364 423.028 377.126 422.032 377.666C421.048 378.206 419.698 378.476 417.982 378.476C416.266 378.476 414.91 378.206 413.914 377.666C412.918 377.126 412.42 376.364 412.42 375.38C412.42 374.72 412.642 374.162 413.086 373.706C413.542 373.238 414.184 372.884 415.012 372.644C415.852 372.392 416.842 372.266 417.982 372.266ZM417.982 373.706C417.202 373.706 416.536 373.772 415.984 373.904C415.444 374.036 415.03 374.222 414.742 374.462C414.454 374.702 414.31 375.008 414.31 375.38C414.31 375.728 414.454 376.028 414.742 376.28C415.03 376.532 415.444 376.724 415.984 376.856C416.536 376.976 417.202 377.036 417.982 377.036C418.762 377.036 419.422 376.976 419.962 376.856C420.502 376.724 420.916 376.532 421.204 376.28C421.504 376.028 421.654 375.728 421.654 375.38C421.654 375.008 421.504 374.702 421.204 374.462C420.916 374.222 420.502 374.036 419.962 373.904C419.422 373.772 418.762 373.706 417.982 373.706ZM413.842 363.698H415.39V364.886C415.39 365.918 415.204 366.89 414.832 367.802C414.472 368.702 413.95 369.5 413.266 370.196C412.582 370.88 411.754 371.396 410.782 371.744L409.828 370.25C410.464 370.022 411.028 369.722 411.52 369.35C412.024 368.978 412.45 368.552 412.798 368.072C413.146 367.592 413.404 367.082 413.572 366.542C413.752 366.002 413.842 365.45 413.842 364.886V363.698ZM414.22 363.698H415.75V364.886C415.75 365.558 415.9 366.218 416.2 366.866C416.5 367.514 416.938 368.096 417.514 368.612C418.09 369.116 418.792 369.518 419.62 369.818L418.684 371.294C417.736 370.958 416.926 370.472 416.254 369.836C415.594 369.188 415.09 368.438 414.742 367.586C414.394 366.722 414.22 365.822 414.22 364.886V363.698ZM410.368 363.14H419.17V364.67H410.368V363.14ZM438.033 362.024H439.923V378.512H438.033V362.024ZM427.269 363.374H429.141V367.568H433.299V363.374H435.171V374.606H427.269V363.374ZM429.141 369.044V373.076H433.299V369.044H429.141ZM446.833 363.392H448.363V366.092C448.363 367.04 448.255 367.976 448.039 368.9C447.835 369.812 447.535 370.664 447.139 371.456C446.755 372.248 446.281 372.956 445.717 373.58C445.153 374.192 444.517 374.678 443.809 375.038L442.675 373.508C443.311 373.196 443.887 372.782 444.403 372.266C444.919 371.738 445.357 371.144 445.717 370.484C446.077 369.812 446.353 369.104 446.545 368.36C446.737 367.604 446.833 366.848 446.833 366.092V363.392ZM447.175 363.392H448.705V366.092C448.705 366.824 448.795 367.55 448.975 368.27C449.155 368.978 449.419 369.656 449.767 370.304C450.127 370.94 450.553 371.51 451.045 372.014C451.537 372.518 452.089 372.92 452.701 373.22L451.549 374.732C450.865 374.372 450.253 373.898 449.713 373.31C449.185 372.71 448.729 372.026 448.345 371.258C447.973 370.49 447.685 369.668 447.481 368.792C447.277 367.916 447.175 367.016 447.175 366.092V363.392ZM453.799 362.042H455.689V378.494H453.799V362.042ZM455.275 368.54H458.245V370.124H455.275V368.54ZM467.784 365.822H472.068V367.37H467.784V365.822ZM464.004 362.762C464.832 362.762 465.57 362.924 466.218 363.248C466.866 363.572 467.37 364.028 467.73 364.616C468.102 365.192 468.288 365.858 468.288 366.614C468.288 367.37 468.102 368.042 467.73 368.63C467.37 369.206 466.866 369.662 466.218 369.998C465.57 370.322 464.832 370.484 464.004 370.484C463.188 370.484 462.456 370.322 461.808 369.998C461.16 369.662 460.65 369.206 460.278 368.63C459.918 368.042 459.738 367.37 459.738 366.614C459.738 365.858 459.918 365.192 460.278 364.616C460.65 364.028 461.16 363.572 461.808 363.248C462.456 362.924 463.188 362.762 464.004 362.762ZM464.022 364.328C463.542 364.328 463.11 364.424 462.726 364.616C462.354 364.796 462.06 365.06 461.844 365.408C461.64 365.756 461.538 366.158 461.538 366.614C461.538 367.07 461.64 367.472 461.844 367.82C462.06 368.168 462.354 368.438 462.726 368.63C463.098 368.81 463.524 368.9 464.004 368.9C464.484 368.9 464.91 368.81 465.282 368.63C465.654 368.438 465.948 368.168 466.164 367.82C466.38 367.472 466.488 367.07 466.488 366.614C466.488 366.158 466.38 365.756 466.164 365.408C465.948 365.06 465.654 364.796 465.282 364.616C464.922 364.424 464.502 364.328 464.022 364.328ZM471.24 362.042H473.13V370.862H471.24V362.042ZM462.438 371.654H464.31V373.49H471.258V371.654H473.13V378.278H462.438V371.654ZM464.31 374.948V376.766H471.258V374.948H464.31ZM480.058 377.252C479.362 377.252 478.744 377.168 478.204 377C477.676 376.832 477.208 376.61 476.8 376.334C476.392 376.046 476.038 375.74 475.738 375.416L476.746 374.084C477.142 374.468 477.592 374.804 478.096 375.092C478.6 375.38 479.194 375.524 479.878 375.524C480.382 375.524 480.82 375.44 481.192 375.272C481.564 375.092 481.852 374.84 482.056 374.516C482.272 374.192 482.38 373.796 482.38 373.328C482.38 372.848 482.26 372.428 482.02 372.068C481.792 371.696 481.39 371.414 480.814 371.222C480.25 371.018 479.47 370.916 478.474 370.916V369.368C479.35 369.368 480.034 369.272 480.526 369.08C481.03 368.876 481.39 368.6 481.606 368.252C481.834 367.904 481.948 367.508 481.948 367.064C481.948 366.488 481.768 366.032 481.408 365.696C481.048 365.348 480.55 365.174 479.914 365.174C479.41 365.174 478.936 365.288 478.492 365.516C478.06 365.732 477.652 366.026 477.268 366.398L476.188 365.102C476.716 364.622 477.292 364.238 477.916 363.95C478.54 363.65 479.23 363.5 479.986 363.5C480.778 363.5 481.48 363.638 482.092 363.914C482.704 364.178 483.184 364.562 483.532 365.066C483.88 365.57 484.054 366.188 484.054 366.92C484.054 367.676 483.844 368.318 483.424 368.846C483.016 369.374 482.464 369.77 481.768 370.034V370.106C482.272 370.238 482.728 370.454 483.136 370.754C483.556 371.042 483.886 371.414 484.126 371.87C484.366 372.326 484.486 372.848 484.486 373.436C484.486 374.228 484.282 374.912 483.874 375.488C483.478 376.052 482.944 376.49 482.272 376.802C481.6 377.102 480.862 377.252 480.058 377.252ZM487.246 369.458H488.614C489.778 369.458 490.792 369.446 491.656 369.422C492.532 369.398 493.342 369.356 494.086 369.296C494.83 369.236 495.586 369.14 496.354 369.008L496.534 370.484C495.754 370.616 494.98 370.718 494.212 370.79C493.444 370.85 492.616 370.892 491.728 370.916C490.84 370.928 489.802 370.934 488.614 370.934H487.246V369.458ZM487.246 363.014H495.112V364.508H489.118V370.124H487.246V363.014ZM488.524 366.182H494.644V367.676H488.524V366.182ZM497.992 362.042H499.882V371.834H497.992V362.042ZM489.136 372.59H499.882V378.278H489.136V372.59ZM498.046 374.084H490.972V376.784H498.046V374.084Z" fill="white"/>
<line x1="455.5" y1="269" x2="455.5" y2="344" stroke="#C4C4C4"/>
<rect x="570" y="344" width="150" height="53" fill="#717E87"/>
<path d="M616.528 362.024H618.418V378.476H616.528V362.024ZM611.686 363.77H613.558C613.558 364.994 613.426 366.164 613.162 367.28C612.898 368.396 612.466 369.458 611.866 370.466C611.278 371.462 610.498 372.386 609.526 373.238C608.566 374.09 607.378 374.858 605.962 375.542L604.954 374.048C606.55 373.28 607.84 372.404 608.824 371.42C609.808 370.436 610.528 369.338 610.984 368.126C611.452 366.902 611.686 365.558 611.686 364.094V363.77ZM605.764 363.77H612.532V365.282H605.764V363.77ZM621.981 363.392H631.611V364.778H621.981V363.392ZM626.787 365.3C627.591 365.3 628.287 365.402 628.875 365.606C629.475 365.81 629.943 366.092 630.279 366.452C630.615 366.812 630.783 367.244 630.783 367.748C630.783 368.252 630.615 368.69 630.279 369.062C629.943 369.434 629.475 369.722 628.875 369.926C628.287 370.118 627.591 370.214 626.787 370.214C625.995 370.214 625.299 370.118 624.699 369.926C624.099 369.722 623.631 369.434 623.295 369.062C622.971 368.69 622.809 368.252 622.809 367.748C622.809 367.244 622.971 366.812 623.295 366.452C623.631 366.092 624.099 365.81 624.699 365.606C625.299 365.402 625.995 365.3 626.787 365.3ZM626.787 366.578C626.127 366.578 625.599 366.68 625.203 366.884C624.807 367.088 624.609 367.376 624.609 367.748C624.609 368.108 624.807 368.396 625.203 368.612C625.611 368.828 626.139 368.936 626.787 368.936C627.459 368.936 627.993 368.828 628.389 368.612C628.785 368.396 628.983 368.108 628.983 367.748C628.983 367.376 628.785 367.088 628.389 366.884C627.993 366.68 627.459 366.578 626.787 366.578ZM625.851 361.916H627.741V364.112H625.851V361.916ZM625.851 369.494H627.741V371.762H625.851V369.494ZM633.069 362.06H634.941V373.112H633.069V362.06ZM623.781 373.832H634.941V378.494H633.069V375.308H623.781V373.832ZM621.711 372.68L621.477 371.222C622.473 371.222 623.559 371.216 624.735 371.204C625.923 371.192 627.129 371.15 628.353 371.078C629.577 371.006 630.759 370.892 631.899 370.736L632.025 372.032C630.849 372.236 629.649 372.386 628.425 372.482C627.213 372.566 626.031 372.62 624.879 372.644C623.739 372.668 622.683 372.68 621.711 372.68ZM638.755 363.266H645.937V364.796H638.755V363.266ZM641.041 367.028H642.895V371.132H641.041V367.028ZM645.181 363.266H647.035V364.22C647.035 364.772 647.017 365.456 646.981 366.272C646.957 367.076 646.843 368.012 646.639 369.08L644.785 368.864C644.989 367.82 645.103 366.926 645.127 366.182C645.163 365.426 645.181 364.772 645.181 364.22V363.266ZM648.997 362.024H650.887V374.39H648.997V362.024ZM650.095 367.244H653.065V368.792H650.095V367.244ZM640.231 376.622H651.427V378.152H640.231V376.622ZM640.231 373.274H642.121V377.09H640.231V373.274ZM637.963 371.96L637.765 370.43C638.737 370.43 639.799 370.424 640.951 370.412C642.115 370.388 643.303 370.34 644.515 370.268C645.727 370.184 646.885 370.064 647.989 369.908L648.115 371.276C646.975 371.468 645.805 371.618 644.605 371.726C643.405 371.822 642.235 371.882 641.095 371.906C639.967 371.93 638.923 371.948 637.963 371.96ZM666.186 362.024H668.076V378.512H666.186V362.024ZM655.422 373.04H656.826C657.774 373.04 658.68 373.028 659.544 373.004C660.42 372.968 661.29 372.908 662.154 372.824C663.018 372.74 663.912 372.626 664.836 372.482L665.016 374.012C663.6 374.252 662.244 374.414 660.948 374.498C659.652 374.57 658.278 374.606 656.826 374.606H655.422V373.04ZM655.386 363.5H663.072V369.584H657.33V373.634H655.422V368.09H661.146V365.03H655.386V363.5ZM671.98 369.458H673.348C674.512 369.458 675.526 369.446 676.39 369.422C677.266 369.398 678.076 369.356 678.82 369.296C679.564 369.236 680.32 369.14 681.088 369.008L681.268 370.484C680.488 370.616 679.714 370.718 678.946 370.79C678.178 370.85 677.35 370.892 676.462 370.916C675.574 370.928 674.536 370.934 673.348 370.934H671.98V369.458ZM671.98 363.014H679.846V364.508H673.852V370.124H671.98V363.014ZM673.258 366.182H679.378V367.676H673.258V366.182ZM682.726 362.042H684.616V371.834H682.726V362.042ZM673.87 372.59H684.616V378.278H673.87V372.59ZM682.78 374.084H675.706V376.784H682.78V374.084Z" fill="white"/>
<line x1="645.5" y1="269" x2="645.5" y2="344" stroke="#C4C4C4"/>
<rect x="760" y="344" width="150" height="53" fill="#717E87"/>
<path d="M777.19 372.356C778.366 372.356 779.386 372.482 780.25 372.734C781.114 372.974 781.78 373.322 782.248 373.778C782.728 374.234 782.968 374.78 782.968 375.416C782.968 376.052 782.728 376.598 782.248 377.054C781.78 377.51 781.114 377.858 780.25 378.098C779.386 378.338 778.366 378.458 777.19 378.458C776.014 378.458 774.994 378.338 774.13 378.098C773.266 377.858 772.594 377.51 772.114 377.054C771.646 376.598 771.412 376.052 771.412 375.416C771.412 374.78 771.646 374.234 772.114 373.778C772.594 373.322 773.266 372.974 774.13 372.734C774.994 372.482 776.014 372.356 777.19 372.356ZM777.19 373.796C776.386 373.796 775.69 373.856 775.102 373.976C774.526 374.096 774.082 374.282 773.77 374.534C773.458 374.774 773.302 375.068 773.302 375.416C773.302 375.752 773.458 376.04 773.77 376.28C774.082 376.52 774.526 376.706 775.102 376.838C775.69 376.97 776.386 377.036 777.19 377.036C778.006 377.036 778.702 376.97 779.278 376.838C779.854 376.706 780.298 376.52 780.61 376.28C780.934 376.04 781.096 375.752 781.096 375.416C781.096 375.068 780.934 374.774 780.61 374.534C780.298 374.282 779.854 374.096 779.278 373.976C778.702 373.856 778.006 373.796 777.19 373.796ZM771.556 362.816H782.068V364.328H771.556V362.816ZM769.846 369.548H784.678V371.06H769.846V369.548ZM775.678 366.524H777.55V369.962H775.678V366.524ZM780.97 362.816H782.842V364.202C782.842 364.862 782.824 365.546 782.788 366.254C782.752 366.95 782.62 367.724 782.392 368.576L780.538 368.378C780.754 367.526 780.88 366.776 780.916 366.128C780.952 365.48 780.97 364.838 780.97 364.202V362.816ZM790.275 363.392H791.805V366.092C791.805 367.04 791.697 367.976 791.481 368.9C791.277 369.812 790.977 370.664 790.581 371.456C790.197 372.248 789.723 372.956 789.159 373.58C788.595 374.192 787.959 374.678 787.251 375.038L786.117 373.508C786.753 373.196 787.329 372.782 787.845 372.266C788.361 371.738 788.799 371.144 789.159 370.484C789.519 369.812 789.795 369.104 789.987 368.36C790.179 367.604 790.275 366.848 790.275 366.092V363.392ZM790.617 363.392H792.147V366.092C792.147 366.824 792.237 367.55 792.417 368.27C792.597 368.978 792.861 369.656 793.209 370.304C793.569 370.94 793.995 371.51 794.487 372.014C794.979 372.518 795.531 372.92 796.143 373.22L794.991 374.732C794.307 374.372 793.695 373.898 793.155 373.31C792.627 372.71 792.171 372.026 791.787 371.258C791.415 370.49 791.127 369.668 790.923 368.792C790.719 367.916 790.617 367.016 790.617 366.092V363.392ZM797.241 362.042H799.131V378.494H797.241V362.042ZM798.717 368.54H801.687V370.124H798.717V368.54ZM814.591 362.024H816.481V378.512H814.591V362.024ZM803.827 363.374H805.699V367.568H809.857V363.374H811.729V374.606H803.827V363.374ZM805.699 369.044V373.076H809.857V369.044H805.699ZM824.004 370.394H825.876V374.012H824.004V370.394ZM831.24 362.042H833.13V374.516H831.24V362.042ZM821.628 376.622H833.526V378.152H821.628V376.622ZM821.628 373.31H823.518V377.036H821.628V373.31ZM819.666 371.024L819.432 369.494C820.44 369.482 821.538 369.47 822.726 369.458C823.914 369.434 825.126 369.392 826.362 369.332C827.61 369.26 828.81 369.152 829.962 369.008L830.106 370.358C828.93 370.55 827.724 370.694 826.488 370.79C825.264 370.886 824.07 370.946 822.906 370.97C821.742 370.994 820.662 371.012 819.666 371.024ZM828.018 371.672H831.708V373.004H828.018V371.672ZM824.742 362.654C825.558 362.654 826.266 362.774 826.866 363.014C827.478 363.254 827.952 363.596 828.288 364.04C828.636 364.472 828.81 364.976 828.81 365.552C828.81 366.128 828.636 366.638 828.288 367.082C827.952 367.526 827.478 367.868 826.866 368.108C826.266 368.336 825.558 368.45 824.742 368.45C823.95 368.45 823.242 368.336 822.618 368.108C822.006 367.868 821.526 367.526 821.178 367.082C820.842 366.638 820.674 366.128 820.674 365.552C820.674 364.976 820.842 364.472 821.178 364.04C821.526 363.596 822.006 363.254 822.618 363.014C823.242 362.774 823.95 362.654 824.742 362.654ZM824.742 364.04C824.07 364.04 823.518 364.178 823.086 364.454C822.666 364.718 822.456 365.084 822.456 365.552C822.456 366.02 822.666 366.392 823.086 366.668C823.518 366.932 824.07 367.064 824.742 367.064C825.414 367.064 825.96 366.932 826.38 366.668C826.8 366.392 827.01 366.02 827.01 365.552C827.01 365.24 826.914 364.976 826.722 364.76C826.53 364.532 826.266 364.358 825.93 364.238C825.594 364.106 825.198 364.04 824.742 364.04ZM846.916 362.024H848.806V378.476H846.916V362.024ZM848.32 368.522H851.29V370.088H848.32V368.522ZM842.668 363.77H844.504C844.504 365.366 844.258 366.89 843.766 368.342C843.286 369.782 842.5 371.108 841.408 372.32C840.328 373.532 838.888 374.588 837.088 375.488L836.044 374.048C837.532 373.28 838.762 372.404 839.734 371.42C840.718 370.436 841.45 369.332 841.93 368.108C842.422 366.884 842.668 365.54 842.668 364.076V363.77ZM836.872 363.77H843.64V365.3H836.872V363.77ZM853.431 363.266H860.613V364.796H853.431V363.266ZM855.717 367.028H857.571V371.132H855.717V367.028ZM859.857 363.266H861.711V364.22C861.711 364.772 861.693 365.456 861.657 366.272C861.633 367.076 861.519 368.012 861.315 369.08L859.461 368.864C859.665 367.82 859.779 366.926 859.803 366.182C859.839 365.426 859.857 364.772 859.857 364.22V363.266ZM863.673 362.024H865.563V374.39H863.673V362.024ZM864.771 367.244H867.741V368.792H864.771V367.244ZM854.907 376.622H866.103V378.152H854.907V376.622ZM854.907 373.274H856.797V377.09H854.907V373.274ZM852.639 371.96L852.441 370.43C853.413 370.43 854.475 370.424 855.627 370.412C856.791 370.388 857.979 370.34 859.191 370.268C860.403 370.184 861.561 370.064 862.665 369.908L862.791 371.276C861.651 371.468 860.481 371.618 859.281 371.726C858.081 371.822 856.911 371.882 855.771 371.906C854.643 371.93 853.599 371.948 852.639 371.96ZM880.862 362.024H882.752V378.512H880.862V362.024ZM870.098 373.04H871.502C872.45 373.04 873.356 373.028 874.22 373.004C875.096 372.968 875.966 372.908 876.83 372.824C877.694 372.74 878.588 372.626 879.512 372.482L879.692 374.012C878.276 374.252 876.92 374.414 875.624 374.498C874.328 374.57 872.954 374.606 871.502 374.606H870.098V373.04ZM870.062 363.5H877.748V369.584H872.006V373.634H870.098V368.09H875.822V365.03H870.062V363.5ZM886.656 369.458H888.024C889.188 369.458 890.202 369.446 891.066 369.422C891.942 369.398 892.752 369.356 893.496 369.296C894.24 369.236 894.996 369.14 895.764 369.008L895.944 370.484C895.164 370.616 894.39 370.718 893.622 370.79C892.854 370.85 892.026 370.892 891.138 370.916C890.25 370.928 889.212 370.934 888.024 370.934H886.656V369.458ZM886.656 363.014H894.522V364.508H888.528V370.124H886.656V363.014ZM887.934 366.182H894.054V367.676H887.934V366.182ZM897.402 362.042H899.292V371.834H897.402V362.042ZM888.546 372.59H899.292V378.278H888.546V372.59ZM897.456 374.084H890.382V376.784H897.456V374.084Z" fill="white"/>
<line x1="835.5" y1="269" x2="835.5" y2="344" stroke="#C4C4C4"/>
</svg>
