<svg width="18" height="18" viewBox="0 0 18 18" fill="none" xmlns="http://www.w3.org/2000/svg">
<mask id="path-1-outside-1_380_6222" maskUnits="userSpaceOnUse" x="0" y="0" width="18" height="18" fill="black">
<rect fill="white" width="18" height="18"/>
<path d="M16.677 17.385L10.415 11.123C9.915 11.549 9.34 11.8787 8.69 12.112C8.04 12.3453 7.38667 12.462 6.73 12.462C5.12867 12.462 3.77333 11.9077 2.664 10.799C1.55467 9.69034 1 8.33534 1 6.734C1 5.13267 1.554 3.777 2.662 2.667C3.77 1.557 5.12467 1.00134 6.726 1C8.32733 0.998669 9.68333 1.55334 10.794 2.664C11.9047 3.77467 12.46 5.13034 12.46 6.731C12.46 7.42567 12.337 8.098 12.091 8.748C11.845 9.398 11.5217 9.954 11.121 10.416L17.383 16.677L16.677 17.385ZM6.731 11.461C8.05767 11.461 9.17767 11.0043 10.091 10.091C11.0043 9.17767 11.461 8.05734 11.461 6.73C11.461 5.40267 11.0043 4.28267 10.091 3.37C9.17767 2.45734 8.05767 2.00067 6.731 2C5.40433 1.99934 4.284 2.456 3.37 3.37C2.456 4.284 1.99933 5.404 2 6.73C2.00067 8.056 2.45733 9.176 3.37 10.09C4.28267 11.004 5.40267 11.4607 6.73 11.46"/>
</mask>
<path d="M16.677 17.385L10.415 11.123C9.915 11.549 9.34 11.8787 8.69 12.112C8.04 12.3453 7.38667 12.462 6.73 12.462C5.12867 12.462 3.77333 11.9077 2.664 10.799C1.55467 9.69034 1 8.33534 1 6.734C1 5.13267 1.554 3.777 2.662 2.667C3.77 1.557 5.12467 1.00134 6.726 1C8.32733 0.998669 9.68333 1.55334 10.794 2.664C11.9047 3.77467 12.46 5.13034 12.46 6.731C12.46 7.42567 12.337 8.098 12.091 8.748C11.845 9.398 11.5217 9.954 11.121 10.416L17.383 16.677L16.677 17.385ZM6.731 11.461C8.05767 11.461 9.17767 11.0043 10.091 10.091C11.0043 9.17767 11.461 8.05734 11.461 6.73C11.461 5.40267 11.0043 4.28267 10.091 3.37C9.17767 2.45734 8.05767 2.00067 6.731 2C5.40433 1.99934 4.284 2.456 3.37 3.37C2.456 4.284 1.99933 5.404 2 6.73C2.00067 8.056 2.45733 9.176 3.37 10.09C4.28267 11.004 5.40267 11.4607 6.73 11.46" fill="white"/>
<path d="M16.677 17.385L16.4649 17.5971L16.6773 17.8096L16.8894 17.5968L16.677 17.385ZM10.415 11.123L10.6271 10.9109L10.4313 10.715L10.2204 10.8946L10.415 11.123ZM6.73 12.462V12.162V12.462ZM11.121 10.416L10.8944 10.2194L10.7113 10.4306L10.9089 10.6282L11.121 10.416ZM17.383 16.677L17.5954 16.8888L17.807 16.6767L17.5951 16.4649L17.383 16.677ZM16.8891 17.1729L10.6271 10.9109L10.2029 11.3351L16.4649 17.5971L16.8891 17.1729ZM10.2204 10.8946C9.74939 11.296 9.20634 11.6079 8.58864 11.8296L8.79136 12.3944C9.47366 12.1494 10.0806 11.802 10.6096 11.3514L10.2204 10.8946ZM8.58864 11.8296C7.96946 12.0519 7.35036 12.162 6.73 12.162L6.73 12.762C7.42298 12.762 8.11054 12.6388 8.79136 12.3944L8.58864 11.8296ZM6.73 12.162C5.20633 12.162 3.92783 11.6379 2.87607 10.5868L2.45193 11.0112C3.61883 12.1774 5.05101 12.762 6.73 12.762V12.162ZM2.87607 10.5868C1.82435 9.53572 1.3 8.25762 1.3 6.734H0.7C0.7 8.41306 1.28499 9.84495 2.45193 11.0112L2.87607 10.5868ZM1.3 6.734C1.3 5.21027 1.82378 3.93139 2.87432 2.87894L2.44968 2.45506C1.28422 3.62262 0.7 5.05507 0.7 6.734H1.3ZM2.87432 2.87894C3.9248 1.82657 5.20261 1.30127 6.72625 1.3L6.72575 0.700002C5.04672 0.701401 3.6152 1.28743 2.44968 2.45506L2.87432 2.87894ZM6.72625 1.3C8.24967 1.29873 9.52874 1.82301 10.5819 2.87613L11.0061 2.45187C9.83792 1.28366 8.40499 0.698604 6.72575 0.700002L6.72625 1.3ZM10.5819 2.87613C11.6351 3.92935 12.16 5.2082 12.16 6.731H12.76C12.76 5.05247 12.1743 3.61999 11.0061 2.45187L10.5819 2.87613ZM12.16 6.731C12.16 7.38937 12.0436 8.02573 11.8104 8.64181L12.3716 8.85419C12.6304 8.17028 12.76 7.46197 12.76 6.731H12.16ZM11.8104 8.64181C11.5752 9.26321 11.2689 9.78754 10.8944 10.2194L11.3476 10.6126C11.7744 10.1205 12.1148 9.53279 12.3716 8.85419L11.8104 8.64181ZM10.9089 10.6282L17.1709 16.8892L17.5951 16.4649L11.3331 10.2039L10.9089 10.6282ZM17.1706 16.4652L16.4646 17.1732L16.8894 17.5968L17.5954 16.8888L17.1706 16.4652ZM6.731 11.761C8.13482 11.761 9.33185 11.2744 10.3031 10.3031L9.87887 9.87887C9.02348 10.7343 7.98052 11.161 6.731 11.161V11.761ZM10.3031 10.3031C11.2744 9.33182 11.761 8.13444 11.761 6.73H11.161C11.161 7.98023 10.7342 9.02351 9.87887 9.87887L10.3031 10.3031ZM11.761 6.73C11.761 5.32556 11.2744 4.12847 10.3031 3.15779L9.87895 3.58221C10.7342 4.43687 11.161 5.47978 11.161 6.73H11.761ZM10.3031 3.15779C9.3318 2.18725 8.13485 1.70071 6.73115 1.7L6.73085 2.3C7.98048 2.30063 9.02354 2.72743 9.87895 3.58221L10.3031 3.15779ZM6.73115 1.7C5.32722 1.6993 4.12981 2.18593 3.15787 3.15787L3.58213 3.58213C4.43819 2.72607 5.48145 2.29937 6.73085 2.3L6.73115 1.7ZM3.15787 3.15787C2.18596 4.12978 1.69929 5.32684 1.7 6.73015L2.3 6.72985C2.29937 5.48116 2.72604 4.43823 3.58213 3.58213L3.15787 3.15787ZM1.7 6.73015C1.70071 8.13323 2.18727 9.33012 3.15771 10.302L3.58229 9.87803C2.7274 9.02189 2.30063 7.97878 2.3 6.72985L1.7 6.73015ZM3.15771 10.302C4.12841 11.2741 5.32559 11.7607 6.73015 11.76L6.72985 11.16C5.47974 11.1606 4.43692 10.7339 3.58229 9.87803L3.15771 10.302Z" fill="white" mask="url(#path-1-outside-1_380_6222)"/>
</svg>
