<svg width="17" height="34" viewBox="0 0 17 34" fill="none" xmlns="http://www.w3.org/2000/svg">
<path d="M0.443535 2.61996L13.412 15.7965C13.6964 16.084 13.8559 16.4721 13.8559 16.8765C13.8559 17.2809 13.6964 17.669 13.412 17.9565L0.446349 31.1331C0.162072 31.4224 0.00278334 31.8117 0.00278332 32.2173C0.0027833 32.6229 0.162072 33.0122 0.446349 33.3015C0.585221 33.444 0.751202 33.5572 0.934513 33.6345C1.11782 33.7118 1.31475 33.7516 1.51369 33.7516C1.71263 33.7516 1.90956 33.7118 2.09287 33.6345C2.27618 33.5572 2.44216 33.444 2.58104 33.3015L15.5467 20.1278C16.3986 19.2601 16.876 18.0926 16.876 16.8765C16.876 15.6605 16.3986 14.493 15.5467 13.6253L2.58104 0.451521C2.44212 0.308641 2.27596 0.195066 2.09239 0.117512C1.90882 0.0399577 1.71157 -6.62857e-07 1.51229 -6.71568e-07C1.31301 -6.80279e-07 1.11575 0.0399576 0.93218 0.117512C0.74861 0.195066 0.582453 0.308641 0.443535 0.451521C0.15926 0.740802 -2.86596e-05 1.13016 -2.86774e-05 1.53574C-2.86951e-05 1.94132 0.15926 2.33068 0.443535 2.61996Z" fill="#05317C"/>
</svg>
