<svg width="17" height="34" viewBox="0 0 17 34" fill="none" xmlns="http://www.w3.org/2000/svg">
<path d="M16.4324 31.1316L3.464 17.9551C3.17958 17.6676 3.02005 17.2795 3.02005 16.8751C3.02005 16.4707 3.17958 16.0826 3.464 15.7951L16.4296 2.6185C16.7139 2.32922 16.8732 1.93986 16.8732 1.53428C16.8732 1.1287 16.7139 0.739345 16.4296 0.450065C16.2908 0.307616 16.1248 0.194408 15.9415 0.117111C15.7582 0.0398095 15.5612 -1.21243e-05 15.3623 -1.21156e-05C15.1633 -1.21069e-05 14.9664 0.0398095 14.7831 0.117111C14.5998 0.194408 14.4338 0.307617 14.2949 0.450065L1.32931 13.6238C0.477335 14.4915 -7.90852e-07 15.659 -7.37696e-07 16.8751C-6.8454e-07 18.0911 0.477335 19.2586 1.32931 20.1263L14.2949 33.3001C14.4339 33.4429 14.6 33.5565 14.7836 33.6341C14.9672 33.7116 15.1644 33.7516 15.3637 33.7516C15.563 33.7516 15.7602 33.7116 15.9438 33.6341C16.1274 33.5565 16.2935 33.4429 16.4324 33.3001C16.7167 33.0108 16.876 32.6214 16.876 32.2158C16.876 31.8103 16.7167 31.4209 16.4324 31.1316Z" fill="white"/>
</svg>
