<svg width="17" height="34" viewBox="0 0 17 34" fill="none" xmlns="http://www.w3.org/2000/svg">
<path d="M16.4324 31.1317L3.464 17.9552C3.17958 17.6677 3.02005 17.2796 3.02005 16.8752C3.02005 16.4708 3.17958 16.0827 3.464 15.7952L16.4296 2.61862C16.7139 2.32934 16.8732 1.93999 16.8732 1.5344C16.8732 1.12883 16.7139 0.739467 16.4296 0.450187C16.2908 0.307739 16.1248 0.19453 15.9415 0.117233C15.7582 0.0399316 15.5612 0.000109946 15.3623 0.000109955C15.1633 0.000109963 14.9664 0.0399316 14.7831 0.117233C14.5998 0.19453 14.4338 0.307739 14.2949 0.450187L1.32931 13.6239C0.477335 14.4917 -7.90852e-07 15.6591 -7.37696e-07 16.8752C-6.8454e-07 18.0912 0.477335 19.2587 1.32931 20.1264L14.2949 33.3002C14.4339 33.4431 14.6 33.5566 14.7836 33.6342C14.9672 33.7118 15.1644 33.7517 15.3637 33.7517C15.563 33.7517 15.7602 33.7117 15.9438 33.6342C16.1274 33.5566 16.2935 33.4431 16.4324 33.3002C16.7167 33.0109 16.876 32.6215 16.876 32.216C16.876 31.8104 16.7167 31.421 16.4324 31.1317Z" fill="#05317C"/>
</svg>
