<svg width="14" height="15" viewBox="0 0 14 15" fill="none" xmlns="http://www.w3.org/2000/svg">
<path d="M7 11.4286C6.53587 11.4286 6.09075 11.2781 5.76256 11.0102C5.43437 10.7423 5.25 10.3789 5.25 10C5.25 9.20717 6.02875 8.57146 7 8.57146C7.46413 8.57146 7.90925 8.72197 8.23744 8.98988C8.56563 9.25779 8.75 9.62115 8.75 10C8.75 10.3789 8.56563 10.7423 8.23744 11.0102C7.90925 11.2781 7.46413 11.4286 7 11.4286ZM12.25 13.5715V6.4286H1.75V13.5715H12.25ZM12.25 5.00003C12.7141 5.00003 13.1592 5.15054 13.4874 5.41845C13.8156 5.68636 14 6.04972 14 6.4286V13.5715C14 13.9503 13.8156 14.3137 13.4874 14.5816C13.1592 14.8495 12.7141 15 12.25 15H1.75C1.28587 15 0.840752 14.8495 0.512563 14.5816C0.184374 14.3137 0 13.9503 0 13.5715V6.4286C0 5.63575 0.77875 5.00003 1.75 5.00003H2.625V3.57146C2.625 2.62426 3.08594 1.71585 3.90641 1.04608C4.72688 0.376305 5.83968 3.05176e-05 7 3.05176e-05C7.57453 3.05176e-05 8.14344 0.0924083 8.67424 0.271889C9.20504 0.45137 9.68734 0.71444 10.0936 1.04608C10.4998 1.37772 10.8221 1.77143 11.042 2.20473C11.2618 2.63804 11.375 3.10245 11.375 3.57146V5.00003H12.25ZM7 1.4286C6.30381 1.4286 5.63613 1.65437 5.14384 2.05623C4.65156 2.45809 4.375 3.00314 4.375 3.57146V5.00003H9.625V3.57146C9.625 3.00314 9.34844 2.45809 8.85616 2.05623C8.36387 1.65437 7.69619 1.4286 7 1.4286Z" fill="black"/>
</svg>
